# xmcd
#
# Track frame offsets: 
#        150
#        19570
#        41468
#        65788
#        81720
#        94620
#        111288
#        125325
#        156425
#        180628
#        209143
#        227563
#        241343
#        260405
#
# Disc length: 3747 seconds
#
# Revision: 1
# Processed by: cddbd v1.5.2PL0 Copyright (c) Steve Scherf et al.
# Submitted via: ExactAudioCopy v0.99pb5
#
DISCID=c40ea10e
DTITLE=Eric Sardinas - Treat Me Right
DYEAR=1999
DGENRE=Blues
TTITLE0=Treat Me Right
TTITLE1=Write Me A Few Lines
TTITLE2=Murdering Blues
TTITLE3=Cherry Bomb
TTITLE4=My Baby's Got Something
TTITLE5=Give Me Love
TTITLE6=Rollin' And Tumblin'
TTITLE7=Low Down Love
TTITLE8=Get Along Rider
TTITLE9=Goin' To The River
TTITLE10=I Can't Be Satisfied
TTITLE11=Sweetwater Blues
TTITLE12=Down In The Bottom
TTITLE13=Tired Of Tryin'
EXTD=Heinz
EXTT0=
EXTT1=
EXTT2=
EXTT3=
EXTT4=
EXTT5=
EXTT6=
EXTT7=
EXTT8=
EXTT9=
EXTT10=
EXTT11=
EXTT12=
EXTT13=
PLAYORDER=
